<?xml version="1.0" standalone="no"?>
<!DOCTYPE svg PUBLIC "-//W3C//DTD SVG 20010904//EN"
 "http://www.w3.org/TR/2001/REC-SVG-20010904/DTD/svg10.dtd">
<svg version="1.0" xmlns="http://www.w3.org/2000/svg"
 width="505.000000pt" height="505.000000pt" viewBox="0 0 505.000000 505.000000"
 preserveAspectRatio="xMidYMid meet">
<metadata>
Created by potrace 1.14, written by Peter Selinger 2001-2017
</metadata>
<g transform="translate(0.000000,505.000000) scale(0.100000,-0.100000)"
fill="#000000" stroke="none">
<path d="M234 4811 c-2 -2 -4 -75 -4 -161 l0 -157 211 1 c211 1 249 -4 249
-35 0 -9 48 -141 71 -194 4 -11 22 -58 39 -105 18 -47 38 -99 46 -117 8 -17
14 -34 14 -38 0 -4 6 -21 14 -38 15 -35 75 -190 125 -327 18 -47 36 -94 40
-105 5 -11 35 -87 66 -170 31 -82 68 -177 80 -210 13 -33 35 -91 50 -130 14
-38 32 -86 40 -105 7 -19 32 -82 54 -140 22 -58 65 -169 95 -248 31 -78 56
-145 56 -148 0 -3 6 -20 14 -37 7 -18 28 -70 45 -117 18 -47 36 -94 41 -105 5
-11 23 -58 40 -105 17 -47 35 -94 39 -105 15 -35 93 -238 113 -295 11 -30 27
-67 34 -82 8 -14 14 -31 14 -37 0 -9 21 -65 105 -281 78 -202 111 -287 157
-410 11 -30 24 -64 29 -75 4 -11 22 -58 39 -105 18 -47 37 -98 44 -115 18 -42
53 -136 61 -163 l6 -22 261 2 260 3 65 170 c36 94 82 215 104 270 21 55 54
143 74 195 20 52 42 109 50 125 7 17 25 64 40 105 15 41 33 89 40 105 8 17 35
86 60 155 42 111 76 199 161 417 31 81 70 183 96 253 11 30 24 64 29 75 4 11
25 63 44 115 20 52 50 129 67 170 16 41 31 80 32 85 1 6 10 27 19 49 9 21 17
41 17 44 0 7 47 126 66 169 8 17 14 34 14 38 0 4 20 57 44 118 51 132 54 138
76 197 26 69 154 401 284 740 65 168 133 346 152 395 58 152 65 165 88 166 12
0 109 2 216 2 l195 2 1 153 c0 88 -4 156 -9 159 -8 5 -1119 8 -1274 4 l-33 -1
0 -159 0 -158 241 1 c132 0 245 -2 250 -5 10 -6 -38 -149 -97 -286 -8 -17 -14
-35 -14 -40 -1 -4 -9 -26 -20 -48 -11 -22 -19 -44 -20 -49 0 -10 -42 -122 -64
-171 -7 -16 -22 -55 -33 -85 -37 -101 -84 -225 -92 -245 -26 -60 -84 -211
-111 -285 -17 -47 -35 -94 -40 -105 -17 -38 -42 -100 -45 -116 -2 -9 -12 -38
-23 -65 -11 -27 -32 -80 -47 -119 -71 -185 -124 -322 -136 -350 -5 -11 -20
-49 -33 -85 -66 -181 -132 -354 -146 -385 -5 -11 -39 -99 -75 -195 -36 -96
-70 -184 -75 -195 -6 -11 -14 -33 -19 -50 -5 -16 -37 -100 -71 -185 -67 -170
-120 -309 -124 -325 -1 -5 -6 -18 -12 -28 -9 -15 -15 -6 -38 55 -15 40 -32 82
-36 93 -5 11 -23 58 -41 105 -17 47 -37 99 -45 115 -7 17 -54 138 -104 270
-50 132 -103 269 -117 305 -14 36 -43 112 -65 170 -23 58 -49 124 -59 147 -11
24 -19 46 -19 49 0 4 -19 55 -41 113 -23 58 -52 135 -66 171 -13 36 -28 73
-33 82 -6 10 -10 23 -10 29 0 6 -15 47 -34 92 -19 45 -55 138 -81 207 -26 69
-51 134 -56 145 -4 11 -24 63 -44 115 -20 52 -40 104 -44 115 -10 23 -70 178
-131 340 -24 61 -46 119 -51 130 -4 11 -22 58 -39 105 -17 47 -37 98 -45 113
-8 16 -15 33 -15 39 0 5 -7 24 -15 41 -12 27 -105 266 -105 270 0 1 112 1 250
1 l250 -1 0 158 c0 120 -3 159 -12 160 -51 3 -1611 3 -1614 0z"/>
</g>
</svg>
